<svg xmlns="http://www.w3.org/2000/svg" viewBox="0 0 1200 900" role="img" aria-labelledby="title desc">
  <title id="title">Students working on laptops</title>
  <desc id="desc">Modern blue illustration of students collaborating with code panels and academic support elements.</desc>
  <defs>
    <linearGradient id="bg" x1="0" y1="0" x2="1" y2="1">
      <stop offset="0%" stop-color="#eff6ff"/>
      <stop offset="55%" stop-color="#dbeafe"/>
      <stop offset="100%" stop-color="#0f172a"/>
    </linearGradient>
    <linearGradient id="panel" x1="0" y1="0" x2="1" y2="1">
      <stop offset="0%" stop-color="#1d4ed8"/>
      <stop offset="100%" stop-color="#0b1f3a"/>
    </linearGradient>
    <linearGradient id="accent" x1="0" y1="0" x2="1" y2="1">
      <stop offset="0%" stop-color="#38bdf8"/>
      <stop offset="100%" stop-color="#2563eb"/>
    </linearGradient>
  </defs>
  <rect width="1200" height="900" rx="48" fill="url(#bg)"/>
  <circle cx="930" cy="170" r="150" fill="#60a5fa" opacity="0.18"/>
  <circle cx="250" cy="170" r="120" fill="#1d4ed8" opacity="0.12"/>
  <rect x="90" y="120" width="360" height="260" rx="34" fill="#ffffff" opacity="0.78"/>
  <rect x="140" y="160" width="140" height="18" rx="9" fill="#93c5fd"/>
  <rect x="140" y="192" width="200" height="18" rx="9" fill="#bfdbfe"/>
  <rect x="140" y="224" width="170" height="18" rx="9" fill="#dbeafe"/>
  <rect x="140" y="260" width="120" height="18" rx="9" fill="#93c5fd"/>
  <rect x="480" y="110" width="300" height="190" rx="28" fill="#0b1f3a" opacity="0.92"/>
  <rect x="510" y="145" width="240" height="20" rx="10" fill="#1d4ed8"/>
  <rect x="510" y="180" width="190" height="16" rx="8" fill="#38bdf8"/>
  <rect x="510" y="210" width="220" height="16" rx="8" fill="#bfdbfe"/>
  <rect x="510" y="240" width="150" height="16" rx="8" fill="#60a5fa"/>
  <rect x="330" y="300" width="520" height="330" rx="42" fill="url(#panel)"/>
  <rect x="370" y="340" width="440" height="30" rx="15" fill="#60a5fa" opacity="0.35"/>
  <rect x="370" y="390" width="280" height="16" rx="8" fill="#dbeafe" opacity="0.95"/>
  <rect x="370" y="420" width="340" height="16" rx="8" fill="#bfdbfe" opacity="0.95"/>
  <rect x="370" y="450" width="200" height="16" rx="8" fill="#93c5fd" opacity="0.95"/>
  <rect x="370" y="510" width="220" height="100" rx="18" fill="#e0f2fe"/>
  <rect x="610" y="510" width="160" height="100" rx="18" fill="#dbeafe"/>
  <rect x="230" y="610" width="740" height="38" rx="19" fill="#c7d2fe" opacity="0.8"/>
  <rect x="250" y="648" width="700" height="26" rx="13" fill="#93c5fd" opacity="0.55"/>
  <circle cx="410" cy="575" r="44" fill="#ffffff"/>
  <circle cx="410" cy="560" r="20" fill="#0b1f3a"/>
  <path d="M370 636c10-34 44-54 80-54 36 0 70 20 80 54" fill="#bfdbfe"/>
  <circle cx="715" cy="560" r="44" fill="#ffffff"/>
  <circle cx="715" cy="546" r="20" fill="#0b1f3a"/>
  <path d="M675 636c10-34 44-54 80-54 36 0 70 20 80 54" fill="#bfdbfe"/>
  <rect x="120" y="470" width="240" height="120" rx="28" fill="rgba(255,255,255,0.92)"/>
  <rect x="145" y="498" width="140" height="16" rx="8" fill="#1d4ed8"/>
  <rect x="145" y="528" width="180" height="16" rx="8" fill="#93c5fd"/>
  <rect x="145" y="558" width="110" height="16" rx="8" fill="#60a5fa"/>
  <circle cx="1000" cy="540" r="110" fill="#38bdf8" opacity="0.2"/>
  <circle cx="1000" cy="540" r="78" fill="none" stroke="#ffffff" stroke-width="18" opacity="0.7"/>
  <path d="M980 540h40M1000 520v40" stroke="#ffffff" stroke-width="18" stroke-linecap="round"/>
</svg>
